<svg width="27" height="23" viewBox="0 0 27 23" fill="none" xmlns="http://www.w3.org/2000/svg">
<path d="M1 11.5C1 13.433 2.567 15 4.5 15C6.433 15 8 13.433 8 11.5C8 9.567 6.433 8 4.5 8C2.567 8 1 9.567 1 11.5Z" fill="#09D605"/>
<path d="M26 11.5C26 13.433 24.433 15 22.5 15C20.567 15 19 13.433 19 11.5C19 9.567 20.567 8 22.5 8C24.433 8 26 9.567 26 11.5Z" fill="#09D605"/>
<path d="M17 4.5C17 6.433 15.433 8 13.5 8C11.567 8 10 6.433 10 4.5C10 2.567 11.567 1 13.5 1C15.433 1 17 2.567 17 4.5Z" fill="#09D605"/>
<path d="M17 18.5C17 20.433 15.433 22 13.5 22C11.567 22 10 20.433 10 18.5C10 16.567 11.567 15 13.5 15C15.433 15 17 16.567 17 18.5Z" fill="#09D605"/>
<path d="M1 11.5C1 13.433 2.567 15 4.5 15C6.433 15 8 13.433 8 11.5C8 9.567 6.433 8 4.5 8C2.567 8 1 9.567 1 11.5Z" stroke="#05B701"/>
<path d="M26 11.5C26 13.433 24.433 15 22.5 15C20.567 15 19 13.433 19 11.5C19 9.567 20.567 8 22.5 8C24.433 8 26 9.567 26 11.5Z" stroke="#05B701"/>
<path d="M17 4.5C17 6.433 15.433 8 13.5 8C11.567 8 10 6.433 10 4.5C10 2.567 11.567 1 13.5 1C15.433 1 17 2.567 17 4.5Z" stroke="#05B701"/>
<path d="M17 18.5C17 20.433 15.433 22 13.5 22C11.567 22 10 20.433 10 18.5C10 16.567 11.567 15 13.5 15C15.433 15 17 16.567 17 18.5Z" stroke="#05B701"/>
</svg>
