<svg width="16" height="14" viewBox="0 0 16 14" fill="none" xmlns="http://www.w3.org/2000/svg">
<path d="M1 7C1 8.10457 1.87752 9 2.96 9C4.04248 9 4.92 8.10457 4.92 7C4.92 5.89543 4.04248 5 2.96 5C1.87752 5 1 5.89543 1 7Z" fill="#09D605"/>
<path d="M15 7C15 8.10457 14.1225 9 13.04 9C11.9575 9 11.08 8.10457 11.08 7C11.08 5.89543 11.9575 5 13.04 5C14.1225 5 15 5.89543 15 7Z" fill="#09D605"/>
<path d="M9.96 3C9.96 4.10457 9.08248 5 8 5C6.91752 5 6.04 4.10457 6.04 3C6.04 1.89543 6.91752 1 8 1C9.08248 1 9.96 1.89543 9.96 3Z" fill="#09D605"/>
<path d="M9.96 11C9.96 12.1046 9.08248 13 8 13C6.91752 13 6.04 12.1046 6.04 11C6.04 9.89543 6.91752 9 8 9C9.08248 9 9.96 9.89543 9.96 11Z" fill="#09D605"/>
<path d="M1 7C1 8.10457 1.87752 9 2.96 9C4.04248 9 4.92 8.10457 4.92 7C4.92 5.89543 4.04248 5 2.96 5C1.87752 5 1 5.89543 1 7Z" stroke="#05B701" stroke-width="0.6"/>
<path d="M15 7C15 8.10457 14.1225 9 13.04 9C11.9575 9 11.08 8.10457 11.08 7C11.08 5.89543 11.9575 5 13.04 5C14.1225 5 15 5.89543 15 7Z" stroke="#05B701" stroke-width="0.6"/>
<path d="M9.96 3C9.96 4.10457 9.08248 5 8 5C6.91752 5 6.04 4.10457 6.04 3C6.04 1.89543 6.91752 1 8 1C9.08248 1 9.96 1.89543 9.96 3Z" stroke="#05B701" stroke-width="0.6"/>
<path d="M9.96 11C9.96 12.1046 9.08248 13 8 13C6.91752 13 6.04 12.1046 6.04 11C6.04 9.89543 6.91752 9 8 9C9.08248 9 9.96 9.89543 9.96 11Z" stroke="#05B701" stroke-width="0.6"/>
</svg>
