<svg width="28" height="28" viewBox="0 0 28 28" fill="none" xmlns="http://www.w3.org/2000/svg">
<path d="M22.9427 10.2641L22.9651 17.6818L17.7359 22.9427L10.3182 22.9651L5.0573 17.7359L5.03488 10.3182L10.2641 5.0573L17.6818 5.03488L22.9427 10.2641Z" stroke="#F5831A" stroke-width="0.5"/>
<g filter="url(#filter0_f)">
<path d="M22.693 10.3684L22.7148 17.579L17.6316 22.693L10.421 22.7148L5.30698 17.6316L5.28519 10.421L10.3684 5.30698L17.579 5.28519L22.693 10.3684Z" stroke="#F5831A"/>
</g>
<path d="M20.4499 11.3559L20.466 16.6764L16.7152 20.4499L11.3947 20.466L7.62115 16.7152L7.60507 11.3947L11.3559 7.62115L16.6764 7.60506L20.4499 11.3559Z" stroke="#F5831A" stroke-width="0.5"/>
<g filter="url(#filter1_f)">
<path d="M20.2002 11.4602L20.2157 16.5736L16.6109 20.2002L11.4975 20.2157L7.87084 16.6109L7.85538 11.4975L11.4602 7.87083L16.5736 7.85538L20.2002 11.4602Z" stroke="#F5831A"/>
</g>
<path d="M17.9566 12.4474L17.9663 15.6706L15.6941 17.9566L12.4709 17.9663L10.1849 15.6941L10.1752 12.4709L12.4474 10.1849L15.6706 10.1752L17.9566 12.4474Z" stroke="#F5831A" stroke-width="0.5"/>
<g filter="url(#filter2_f)">
<path d="M17.7069 12.5517L17.716 15.5678L15.5898 17.7069L12.5737 17.716L10.4346 15.5898L10.4255 12.5737L12.5517 10.4346L15.5678 10.4255L17.7069 12.5517Z" stroke="#F5831A"/>
</g>
<defs>
<filter id="filter0_f" x="0.784561" y="0.784565" width="26.4309" height="26.4309" filterUnits="userSpaceOnUse" color-interpolation-filters="sRGB">
<feFlood flood-opacity="0" result="BackgroundImageFix"/>
<feBlend mode="normal" in="SourceGraphic" in2="BackgroundImageFix" result="shape"/>
<feGaussianBlur stdDeviation="2" result="effect1_foregroundBlur"/>
</filter>
<filter id="filter1_f" x="3.35476" y="3.35475" width="21.3616" height="21.3616" filterUnits="userSpaceOnUse" color-interpolation-filters="sRGB">
<feFlood flood-opacity="0" result="BackgroundImageFix"/>
<feBlend mode="normal" in="SourceGraphic" in2="BackgroundImageFix" result="shape"/>
<feGaussianBlur stdDeviation="2" result="effect1_foregroundBlur"/>
</filter>
<filter id="filter2_f" x="5.92485" y="5.92484" width="16.2918" height="16.2918" filterUnits="userSpaceOnUse" color-interpolation-filters="sRGB">
<feFlood flood-opacity="0" result="BackgroundImageFix"/>
<feBlend mode="normal" in="SourceGraphic" in2="BackgroundImageFix" result="shape"/>
<feGaussianBlur stdDeviation="2" result="effect1_foregroundBlur"/>
</filter>
</defs>
</svg>
